<svg id="Layer_1" data-name="Layer 1" xmlns="http://www.w3.org/2000/svg" xmlns:xlink="http://www.w3.org/1999/xlink" viewBox="0 0 145.7 89.28"><defs><style>.cls-1{fill:url(#linear-gradient);}.cls-2{fill:#676865;}.cls-3{fill:url(#linear-gradient-2);}</style><linearGradient id="linear-gradient" x1="69.41" y1="54.05" x2="38.09" y2="195.06" gradientUnits="userSpaceOnUse"><stop offset="0" stop-color="#0374a6"/><stop offset="0.1" stop-color="#0977a8"/><stop offset="0.22" stop-color="#1980ae"/><stop offset="0.36" stop-color="#338fb7"/><stop offset="0.51" stop-color="#59a3c4"/><stop offset="0.68" stop-color="#88bed5"/><stop offset="0.84" stop-color="#c2dde9"/><stop offset="1" stop-color="#fff"/></linearGradient><linearGradient id="linear-gradient-2" x1="151.92" y1="6.83" x2="94.83" y2="95.99" gradientUnits="userSpaceOnUse"><stop offset="0.35" stop-color="#0374a6"/><stop offset="0.41" stop-color="#0977a8"/><stop offset="0.49" stop-color="#1980ae"/><stop offset="0.59" stop-color="#338fb7"/><stop offset="0.68" stop-color="#59a3c4"/><stop offset="0.79" stop-color="#88bed5"/><stop offset="0.9" stop-color="#c2dde9"/><stop offset="1" stop-color="#fff"/></linearGradient></defs><path class="cls-1" d="M59.16,59.57l-36,79.74H43.88s6.48-20,33.1-18a4.26,4.26,0,0,0,3.61-1.52c2.09-2.54,4.59-6,.59-11.64-.9-1.27-2.66-1.63-4.23-1.63H56S71,81.21,59.16,59.57Z" transform="translate(-23.15 -51.36)"/><path class="cls-2" d="M64.61,51.71l30.56,73.83s10,20.42,24,13.77L87.45,63.2S82.61,49,64.61,51.71Z" transform="translate(-23.15 -51.36)"/><polygon class="cls-3" points="142.22 0 123.31 0 83.52 42.26 125.73 87.95 145.7 87.95 103.79 42.71 142.22 0"/></svg>