<?xml version="1.0" encoding="utf-8"?>
<!-- Generator: Adobe Illustrator 25.4.1, SVG Export Plug-In . SVG Version: 6.00 Build 0)  -->
<svg version="1.1" id="Layer_1" xmlns="http://www.w3.org/2000/svg" xmlns:xlink="http://www.w3.org/1999/xlink" x="0px" y="0px"
	 viewBox="0 0 188 188" style="enable-background:new 0 0 188 188;" xml:space="preserve">
<style type="text/css">
	.st0{fill:#F4F2F2;}
	.st1{fill:#E4405F;}
	.st2{fill:#00C8DA;}
</style>
<circle class="st0" cx="94" cy="94" r="94"/>
<path class="st1" d="M56,56.4l-37.1,82.2h21.4c0,0,6.7-20.6,34.1-18.6c1.4,0.1,2.8-0.5,3.7-1.6c2.2-2.6,4.7-6.2,0.6-12
	c-0.9-1.3-2.8-1.7-4.4-1.7H52.7C52.7,104.7,68.2,78.7,56,56.4z"/>
<path class="st2" d="M61.6,48.3l31.5,76.2c0,0,10.3,21.1,24.8,14.2L85.2,60.2C85.2,60.2,80.2,45.5,61.6,48.3z"/>
<polygon class="st1" points="165.6,48 146.1,48 105,91.5 148.5,138.6 169.1,138.6 125.9,92 "/>
</svg>
