<svg id="Layer_1" data-name="Layer 1" xmlns="http://www.w3.org/2000/svg" xmlns:xlink="http://www.w3.org/1999/xlink" viewBox="0 0 896.73 549.5"><defs><style>.cls-1{fill:url(#linear-gradient);}.cls-2{fill:#676865;}.cls-3{fill:url(#linear-gradient-2);}</style><linearGradient id="linear-gradient" x1="519.33" y1="125.81" x2="326.57" y2="993.67" gradientUnits="userSpaceOnUse"><stop offset="0" stop-color="#0374a6"/><stop offset="0.1" stop-color="#0977a8"/><stop offset="0.22" stop-color="#1980ae"/><stop offset="0.36" stop-color="#338fb7"/><stop offset="0.51" stop-color="#59a3c4"/><stop offset="0.68" stop-color="#88bed5"/><stop offset="0.84" stop-color="#c2dde9"/><stop offset="1" stop-color="#fff"/></linearGradient><linearGradient id="linear-gradient-2" x1="935" y1="42.02" x2="583.64" y2="590.8" gradientUnits="userSpaceOnUse"><stop offset="0.35" stop-color="#0374a6"/><stop offset="0.41" stop-color="#0977a8"/><stop offset="0.49" stop-color="#1980ae"/><stop offset="0.59" stop-color="#338fb7"/><stop offset="0.68" stop-color="#59a3c4"/><stop offset="0.79" stop-color="#88bed5"/><stop offset="0.9" stop-color="#c2dde9"/><stop offset="1" stop-color="#fff"/></linearGradient></defs><path class="cls-1" d="M456.26,159.81,234.64,650.54H362.21s39.91-123.29,203.7-111a26.17,26.17,0,0,0,22.22-9.34c12.9-15.65,28.29-37,3.67-71.62-5.57-7.85-16.41-10.07-26-10.07H436.7S528.89,293,456.26,159.81Z" transform="translate(-234.64 -109.25)"/><path class="cls-2" d="M489.78,111.39,677.88,565.8s61.46,125.71,148.06,84.74L630.39,182.15S600.59,94.62,489.78,111.39Z" transform="translate(-234.64 -109.25)"/><polygon class="cls-3" points="875.31 0 758.91 0 514.01 260.07 773.81 541.29 896.73 541.29 638.79 262.86 875.31 0"/></svg>